<?xml version="1.0" encoding="utf-8"?>
<!-- Generator: Adobe Illustrator 24.2.0, SVG Export Plug-In . SVG Version: 6.00 Build 0)  -->
<svg version="1.1" id="Ebene_1" xmlns="http://www.w3.org/2000/svg" xmlns:xlink="http://www.w3.org/1999/xlink" x="0px" y="0px"
	 viewBox="0 0 230 100" style="enable-background:new 0 0 230 100;" xml:space="preserve">
<style type="text/css">
	.st0{fill:#1D1D1B;}
	.st1{fill:#FFFFFF;}
	.st2{fill-rule:evenodd;clip-rule:evenodd;fill:#FFFFFF;}
	.st3{clip-path:url(#SVGID_2_);fill:#FFFFFF;}
	.st4{clip-path:url(#SVGID_4_);fill:#FFFFFF;}
	.st5{clip-path:url(#SVGID_6_);fill:#FFFFFF;}
	.st6{clip-path:url(#SVGID_8_);fill:#FFFFFF;}
	.st7{fill:none;stroke:#FFFFFF;stroke-miterlimit:10;}
	.st8{fill:none;stroke:#82368C;stroke-miterlimit:10;}
</style>
<rect x="-1173.38" y="302.03" transform="matrix(0.9969 -0.0787 0.0787 0.9969 -32.4717 9.2611)" class="st0" width="2549.28" height="229.13"/>
<g>
	<path class="st1" d="M-330.77,432.57c0.12,3.9,3.39,6.4,8.19,6.4c2.95,0,4.93-1.08,6.63-2.49l-8.99-11.96
		C-329.16,427.29-330.85,430.01-330.77,432.57L-330.77,432.57z"/>
	<path class="st1" d="M-318.92,407.77c0-2.12-1.49-3.48-3.85-3.48c-2.29,0-3.91,1.51-3.91,3.55c0,1.97,0.59,3.05,3.32,6.56
		C-320.12,412.06-318.92,409.89-318.92,407.77L-318.92,407.77z"/>
	<path class="st1" d="M-284.54,445.49h-9.48v-39.86h-7.59v-7.6h17.08L-284.54,445.49L-284.54,445.49z M-309.07,445.49l-2.11-2.85
		c-3.46,2.77-6.49,3.8-11.4,3.77c-9.6-0.05-16.21-4.93-16.83-13.61c-0.37-5.19,3.1-10.53,9.75-14.37
		c-4.28-5.48-5.16-7.38-5.16-10.82c0-5.85,5-10.15,12.09-10.15c6.57,0,11.22,4.37,11.22,10.37c0,4.39-1.8,7.64-7.34,12.25l8.2,11.13
		c0.68-0.62,1.27-4.4,1.15-7.47c-0.01-0.37-0.09-1.43-0.17-2.6h7.62c0,1.02,0.1,2.5,0.1,2.87c0,5.99-0.94,9.78-3.82,13.44l6.06,8.04
		H-309.07L-309.07,445.49z M-345.25,445.49h-9.48v-39.86h-7.59v-7.6h17.08L-345.25,445.49L-345.25,445.49z M-371.96,373.13v100.83
		h100.83V373.13H-371.96L-371.96,373.13z"/>
</g>
<g>
	<polygon class="st1" points="-92.12,438.98 -90.24,438.98 -90.24,445.43 -86.85,445.43 -86.85,447.11 -92.12,447.11 	"/>
	<path class="st1" d="M-82.51,443.65c-0.08-0.69-0.39-1.01-0.96-1.01c-0.59,0-0.97,0.35-1.09,1.01H-82.51L-82.51,443.65z
		 M-84.58,444.82c0.09,0.74,0.58,1.09,1.53,1.09c0.68,0,1.26-0.17,1.86-0.56v1.35c-0.73,0.38-1.36,0.52-2.12,0.52
		c-1.87,0-2.96-1.06-2.96-2.87c0-1.8,1.12-2.97,2.81-2.97c1.63,0,2.56,1.05,2.56,2.88v0.08l-0.01,0.34l-0.01,0.13h-3.66V444.82z"/>
	<path class="st1" d="M-76.98,444.72c-1.17,0.13-1.5,0.3-1.5,0.75c0,0.34,0.22,0.5,0.71,0.5c0.24,0,0.44-0.02,0.8-0.08v-1.17H-76.98
		z M-79.69,441.93c0.82-0.38,1.49-0.52,2.31-0.52c0.91,0,1.5,0.24,1.76,0.71c0.15,0.26,0.19,0.59,0.19,1.33v3.56
		c-0.89,0.13-1.79,0.19-2.49,0.19c-1.47,0-2.14-0.51-2.14-1.63c0-1.26,0.79-1.78,3.03-2v-0.39c0-0.33-0.16-0.46-0.6-0.46
		c-0.67,0-1.32,0.17-2.06,0.56L-79.69,441.93L-79.69,441.93z"/>
	<path class="st1" d="M-70.74,442.91c-0.23-0.07-0.36-0.09-0.58-0.09c-0.9,0-1.41,0.55-1.41,1.51c0,0.94,0.49,1.46,1.38,1.46
		c0.18,0,0.32-0.01,0.62-0.07L-70.74,442.91L-70.74,442.91z M-70.74,438.57h1.76v8.37c-0.94,0.17-1.55,0.24-2.27,0.24
		c-2.15,0-3.28-0.96-3.28-2.8c0-1.81,1.17-2.97,3.02-2.97c0.3,0,0.5,0.02,0.76,0.09L-70.74,438.57L-70.74,438.57z"/>
	<path class="st1" d="M-67.57,441.53h1.76v5.58h-1.76V441.53L-67.57,441.53z M-67.57,438.83h1.76v1.81h-1.76V438.83L-67.57,438.83z"
		/>
	<path class="st1" d="M-64.43,441.8c1.1-0.28,1.89-0.4,2.72-0.4c0.93,0,1.56,0.19,1.97,0.6c0.35,0.36,0.48,0.79,0.48,1.66v3.44
		h-1.75v-3.37c0-0.66-0.23-0.9-0.85-0.9c-0.25,0-0.47,0.03-0.8,0.1v4.17h-1.77L-64.43,441.8L-64.43,441.8z"/>
	<path class="st1" d="M-54.66,445.23c0-0.26,0-0.28-0.01-0.69c0-0.24-0.01-0.93-0.02-1.71c-0.58,0-0.82,0.05-1.14,0.2
		c-0.5,0.26-0.73,0.68-0.73,1.34c0,0.88,0.44,1.38,1.23,1.38c0.23,0,0.39-0.03,0.67-0.13V445.23L-54.66,445.23z M-58.18,448.07
		c0.67,0.34,1.22,0.49,1.89,0.49c0.6,0,1.02-0.14,1.29-0.43c0.24-0.26,0.32-0.56,0.34-1.21c-0.36,0.17-0.67,0.24-1.12,0.24
		c-1.56,0-2.54-1-2.54-2.62c0-1.99,1.45-3.12,4.03-3.12c0.72,0,1.36,0.07,2.27,0.25v1.38c-0.51-0.1-0.7-0.14-0.99-0.16l0.03,1.88
		c0.01,0.55,0.02,1.33,0.02,1.33c0,1.22-0.11,1.96-0.4,2.48c-0.52,0.97-1.5,1.45-2.95,1.45c-0.69,0-1.23-0.1-1.88-0.34v-1.62H-58.18
		z"/>
	<path class="st1" d="M-46.81,445.7h0.24l0.66,0.02c0.98,0,1.48-0.34,1.48-1c0-0.71-0.52-1.05-1.59-1.05c-0.24,0-0.24,0-0.51,0.01
		l-0.27,0.01v2.01H-46.81z M-46.81,442.28h0.24c1.07,0,1.36-0.05,1.61-0.24c0.2-0.17,0.32-0.43,0.32-0.73
		c0-0.68-0.44-0.99-1.42-0.99c-0.13,0-0.47,0.01-0.74,0.03v1.93H-46.81z M-48.6,439.03c1.02-0.07,1.75-0.09,2.44-0.09
		c1.15,0,1.81,0.11,2.37,0.41c0.65,0.34,1.01,0.98,1.01,1.75c0,0.89-0.42,1.43-1.39,1.76c1.14,0.36,1.63,0.97,1.63,2
		c0,0.9-0.43,1.55-1.3,1.92c-0.58,0.25-1.31,0.35-2.62,0.35c-0.62,0-1.4-0.02-2.14-0.06V439.03L-48.6,439.03z"/>
	<path class="st1" d="M-37.87,443.65c-0.08-0.69-0.39-1.01-0.96-1.01c-0.59,0-0.97,0.35-1.09,1.01H-37.87L-37.87,443.65z
		 M-39.94,444.82c0.09,0.74,0.58,1.09,1.53,1.09c0.68,0,1.26-0.17,1.86-0.56v1.35c-0.73,0.38-1.36,0.52-2.12,0.52
		c-1.87,0-2.96-1.06-2.96-2.87c0-1.8,1.12-2.97,2.81-2.97c1.63,0,2.56,1.05,2.56,2.88v0.08l-0.01,0.34l-0.01,0.13h-3.66V444.82z"/>
	<path class="st1" d="M-34.05,441.53c0.15,0.65,0.41,1.57,0.64,2.28l0.39,1.13l0.09,1.13l0.1-1.14l0.33-0.83
		c0.22-0.56,0.66-1.96,0.81-2.56h1.82c-0.63,1.95-1.13,3.27-1.89,4.92l-0.48,1.05l-0.43,0.95c-0.16,0.36-0.34,0.79-0.64,1.51h-1.71
		l0.33-0.8l0.46-1.06c0.13-0.3,0.22-0.49,0.25-0.57c0.02-0.03,0.08-0.15,0.14-0.27c-0.85-1.83-1.55-3.79-2.05-5.73h1.84V441.53z"/>
	<path class="st1" d="M-28.05,444.32c0,0.97,0.4,1.54,1.08,1.54c0.67,0,1.07-0.57,1.07-1.55c0-0.98-0.4-1.55-1.07-1.55
		C-27.65,442.76-28.05,443.33-28.05,444.32L-28.05,444.32z M-24.11,444.28c0,1.83-1.12,2.98-2.9,2.98c-1.75,0-2.82-1.1-2.82-2.93
		c0-1.8,1.14-2.95,2.9-2.95C-25.18,441.38-24.11,442.49-24.11,444.28L-24.11,444.28z"/>
	<path class="st1" d="M-23.03,441.8c1.1-0.28,1.89-0.4,2.72-0.4c0.93,0,1.56,0.19,1.97,0.6c0.35,0.36,0.48,0.79,0.48,1.66v3.44
		h-1.75v-3.37c0-0.66-0.23-0.9-0.86-0.9c-0.25,0-0.47,0.03-0.8,0.1v4.17h-1.76L-23.03,441.8L-23.03,441.8z"/>
	<path class="st1" d="M-13.07,442.91c-0.23-0.07-0.36-0.09-0.58-0.09c-0.9,0-1.41,0.55-1.41,1.51c0,0.94,0.49,1.46,1.38,1.46
		c0.18,0,0.32-0.01,0.62-0.07v-2.81H-13.07z M-13.07,438.57h1.76v8.37c-0.94,0.17-1.55,0.24-2.27,0.24c-2.15,0-3.28-0.96-3.28-2.8
		c0-1.81,1.17-2.97,3.02-2.97c0.3,0,0.5,0.02,0.76,0.09v-2.93H-13.07z"/>
	<path class="st1" d="M-0.6,446.74c-0.88,0.36-1.63,0.51-2.56,0.51c-2.79,0-4.51-1.57-4.51-4.11c0-2.57,1.87-4.29,4.68-4.29
		c0.88,0,1.51,0.14,2.39,0.5v1.79c-0.81-0.48-1.38-0.65-2.2-0.65c-1.76,0-2.86,0.98-2.86,2.58c0,1.56,1.06,2.51,2.79,2.51
		c0.82,0,1.42-0.17,2.27-0.65L-0.6,446.74L-0.6,446.74z"/>
	<path class="st1" d="M0.69,438.57h1.76v3.09c0.53-0.18,0.88-0.25,1.37-0.25c0.73,0,1.25,0.17,1.61,0.54
		c0.32,0.32,0.43,0.69,0.43,1.42v3.75H4.11v-3.4c0-0.61-0.24-0.86-0.81-0.86c-0.3,0-0.55,0.06-0.84,0.18v4.09H0.69V438.57
		L0.69,438.57z"/>
	<path class="st1" d="M10.66,443.65c-0.08-0.69-0.39-1.01-0.96-1.01c-0.59,0-0.97,0.35-1.09,1.01H10.66L10.66,443.65z M8.59,444.82
		c0.09,0.74,0.58,1.09,1.53,1.09c0.68,0,1.26-0.17,1.86-0.56v1.35c-0.73,0.38-1.36,0.52-2.12,0.52c-1.87,0-2.96-1.06-2.96-2.87
		c0-1.8,1.12-2.97,2.81-2.97c1.63,0,2.56,1.05,2.56,2.88v0.08l-0.01,0.34l-0.01,0.13H8.59V444.82z"/>
	<path class="st1" d="M13.41,441.78c1-0.27,1.69-0.38,2.49-0.38c0.73,0,1.12,0.09,1.66,0.4c0.76-0.3,1.26-0.4,1.95-0.4
		c0.8,0,1.37,0.18,1.75,0.55c0.36,0.34,0.5,0.79,0.5,1.58v3.58H20v-3.5c0-0.56-0.24-0.8-0.79-0.8c-0.26,0-0.48,0.05-0.76,0.16
		c0.06,0.2,0.07,0.33,0.07,0.6v3.53h-1.76v-3.47c0-0.58-0.24-0.82-0.82-0.82c-0.26,0-0.46,0.03-0.76,0.13v4.17h-1.76L13.41,441.78
		L13.41,441.78z"/>
	<path class="st1" d="M23.09,441.53h1.76v5.58h-1.76V441.53L23.09,441.53z M23.09,438.83h1.76v1.81h-1.76V438.83L23.09,438.83z"/>
	<path class="st1" d="M26.04,445.45c0.68,0.34,1.12,0.46,1.69,0.46c0.47,0,0.72-0.13,0.72-0.36c0-0.15-0.08-0.25-0.27-0.34
		l-0.71-0.33c-1.07-0.5-1.42-0.91-1.42-1.67c0-1.13,0.88-1.8,2.35-1.8c0.57,0,0.99,0.08,1.57,0.32v1.39
		c-0.57-0.27-0.94-0.38-1.45-0.38c-0.49,0-0.76,0.14-0.76,0.38c0,0.15,0.09,0.25,0.28,0.34l0.7,0.33c1.12,0.54,1.43,0.9,1.43,1.66
		c0,1.2-0.8,1.8-2.37,1.8c-0.67,0-1.16-0.09-1.75-0.34v-1.46H26.04z"/>
	<path class="st1" d="M30.68,441.65h0.98v-1.56h1.65v1.56h1.25v1.31h-1.25v1.89c0,0.74,0.16,0.95,0.76,0.95
		c0.13,0,0.21-0.01,0.39-0.05v1.32c-0.41,0.07-0.67,0.09-0.97,0.09c-0.76,0-1.29-0.18-1.61-0.57c-0.25-0.31-0.31-0.59-0.31-1.51
		v-2.12h-0.9v-1.31H30.68z"/>
	<path class="st1" d="M35.55,441.94c0.96-0.36,1.79-0.54,2.68-0.54c0.47,0,0.79,0.05,1.22,0.18v1.49c-0.34-0.14-0.63-0.19-1.04-0.19
		c-0.4,0-0.69,0.06-1.09,0.19v4.03h-1.77V441.94L35.55,441.94z"/>
	<path class="st1" d="M41.76,441.53c0.15,0.65,0.41,1.57,0.64,2.28l0.39,1.13l0.09,1.13l0.1-1.14l0.33-0.83
		c0.22-0.56,0.66-1.96,0.81-2.56h1.82c-0.63,1.95-1.13,3.27-1.89,4.92l-0.48,1.05l-0.43,0.95c-0.16,0.36-0.34,0.79-0.64,1.51h-1.71
		l0.33-0.8l0.46-1.06c0.13-0.3,0.22-0.49,0.25-0.57c0.02-0.03,0.08-0.15,0.14-0.27c-0.85-1.83-1.55-3.79-2.05-5.73h1.84V441.53z"/>
	<path class="st1" d="M44.92,432.76l-3.65,0.01c-0.36-0.03-0.65-0.31-0.68-0.67c-0.14-2.27-0.95-4.34-2.25-6.03
		c-0.23-0.29-0.46-0.57-0.72-0.84c-1.36-1.55-3.36-2.51-5.59-2.51h-2.34v9.32c0,0.4-0.33,0.73-0.73,0.73h-3.81
		c-0.4,0-0.73-0.33-0.73-0.73v-21.97c0-0.4,0.33-0.73,0.73-0.73h3.81c0.4,0,0.73,0.32,0.73,0.73v7.38h2.34
		c4.15,0,7.52-3.32,7.61-7.45c0.03-0.34,0.31-0.62,0.65-0.66h3.89c0.39,0,0.7,0.3,0.73,0.69c-0.06,4.1-2.04,7.73-5.07,10.05
		c0.81,0.62,1.55,1.33,2.19,2.12c2.28,2.68,3.71,6.1,3.87,9.85c-0.01,0.38-0.3,0.68-0.67,0.71L44.92,432.76L44.92,432.76
		L44.92,432.76z"/>
	<path class="st1" d="M14.09,432.04v-21.96c0-0.4,0.33-0.73,0.73-0.73h3.81c0.4,0,0.73,0.33,0.73,0.73v21.96
		c0,0.4-0.33,0.73-0.73,0.73h-3.82C14.41,432.76,14.09,432.44,14.09,432.04L14.09,432.04L14.09,432.04z"/>
	<path class="st1" d="M3.74,414.83c-2-0.77-4.17-1.2-6.44-1.2s-4.44,0.42-6.44,1.2v17.2c0,0.4-0.33,0.73-0.73,0.73h-3.82
		c-0.4-0.01-0.72-0.33-0.72-0.73v-20.11c0.01-0.23,0.13-0.43,0.31-0.56c3.36-1.91,7.26-3,11.4-3s8.03,1.09,11.4,3
		c0.19,0.13,0.32,0.35,0.32,0.6v20.07c0,0.4-0.33,0.73-0.73,0.73H4.46c-0.4-0.01-0.72-0.33-0.72-0.73V414.83L3.74,414.83
		L3.74,414.83z"/>
	<path class="st2" d="M-31.21,433.75c-4.11,0-7.97-1.07-11.36-2.98c-0.2-0.12-0.33-0.33-0.35-0.57v-18.27
		c0.01-0.24,0.14-0.45,0.33-0.57c3.36-1.9,7.24-2.99,11.38-2.99s8.02,1.08,11.38,2.99c0.19,0.12,0.32,0.33,0.33,0.57v18.27
		c-0.02,0.24-0.15,0.45-0.35,0.57C-23.24,432.67-27.1,433.75-31.21,433.75L-31.21,433.75L-31.21,433.75z M-24.77,414.83
		c-2-0.77-4.17-1.2-6.44-1.2s-4.44,0.42-6.44,1.2v12.44c2,0.77,4.17,1.2,6.44,1.2s4.44-0.42,6.44-1.2V414.83L-24.77,414.83
		L-24.77,414.83z"/>
	<path class="st1" d="M-51.72,409.36h5.1c0.38,0.02,0.69,0.34,0.69,0.73c0,0.09-0.02,0.17-0.04,0.25l-8.39,21.94
		c-0.11,0.28-0.37,0.47-0.69,0.47h-6.41c-0.29,0-0.55-0.17-0.67-0.43l-8.02-22.06c-0.02-0.06-0.02-0.12-0.02-0.19
		c0-0.38,0.28-0.68,0.64-0.73h5.16c0.3,0.02,0.55,0.22,0.64,0.49l5.47,17.65l5.91-17.68C-52.25,409.56-52.01,409.38-51.72,409.36
		L-51.72,409.36L-51.72,409.36z"/>
	<g>
		<g>
			<defs>
				<rect id="SVGID_1_" x="-155.76" y="398.05" width="201.69" height="51.98"/>
			</defs>
			<clipPath id="SVGID_2_">
				<use xlink:href="#SVGID_1_"  style="overflow:visible;"/>
			</clipPath>
			<path class="st3" d="M-73.03,432.77h-18.53c-0.25-0.01-0.52-0.16-0.64-0.36c-1.93-3.34-2.97-7.23-2.97-11.35
				s1.08-7.98,2.97-11.33c0.13-0.23,0.42-0.38,0.69-0.38h17.56c0.34,0.04,0.61,0.31,0.65,0.65v3.96c-0.03,0.35-0.31,0.62-0.65,0.66
				H-88.7c-0.47,1.21-0.81,2.49-1,3.81h14.75c0.36,0.03,0.64,0.31,0.68,0.66v3.88c0,0.39-0.31,0.71-0.69,0.73H-89.7
				c0.2,1.32,0.54,2.6,1,3.81h15.69c0.36,0.02,0.65,0.31,0.68,0.67v3.87C-72.33,432.43-72.64,432.75-73.03,432.77L-73.03,432.77
				L-73.03,432.77z"/>
		</g>
		<g>
			<defs>
				<rect id="SVGID_3_" x="-155.76" y="398.05" width="201.69" height="51.98"/>
			</defs>
			<clipPath id="SVGID_4_">
				<use xlink:href="#SVGID_3_"  style="overflow:visible;"/>
			</clipPath>
			<path class="st4" d="M-132.75,403.29c-9.81,0-17.76,7.95-17.76,17.76s7.95,17.76,17.76,17.76c5.35,0,10.15-2.37,13.4-6.11
				c0,0-18.32,0-18.62,0c-0.23,0-0.43-0.06-0.59-0.14c-4.2-2.12-7.08-6.48-7.08-11.51s2.88-9.39,7.08-11.51
				c0.17-0.09,0.38-0.14,0.59-0.14c1.64,0,9.36,0,10.42,0c0.3,0,0.5,0.09,0.6,0.14c1.85,0.93,3.42,2.28,4.63,3.95
				c0.36,0.49-0.01,1.15-0.59,1.15c-0.51,0-14.01,0-14.01,0c-2.09,1.36-3.47,3.72-3.47,6.41c0,2.68,1.38,5.04,3.47,6.41
				c0,0,24.75,0,25.28,0c0.49,0,0.85,0.48,0.69,0.96c-3.07,9.09-11.67,15.64-21.8,15.64c-12.71,0-23-10.3-23-23s10.3-23.01,23-23.01
				c12.71,0,23.01,10.3,23.01,23.01c0,0.66-0.03,1.31-0.08,1.95c-0.03,0.39-0.37,0.67-0.71,0.67c-3.94,0-24.39,0-24.65,0
				c-0.32,0-0.57-0.2-0.67-0.43c-0.3-0.67-0.46-1.41-0.46-2.19s0.16-1.52,0.46-2.19c0.12-0.26,0.38-0.43,0.67-0.43
				c0.38,0,20.01,0,20.01,0C-116.45,409.87-123.83,403.29-132.75,403.29L-132.75,403.29z"/>
		</g>
	</g>
</g>
<g>
	<g>
		<g>
			<defs>
				<rect id="SVGID_5_" x="414.24" y="401.38" width="175.36" height="44.32"/>
			</defs>
			<clipPath id="SVGID_6_">
				<use xlink:href="#SVGID_5_"  style="overflow:visible;"/>
			</clipPath>
			<path class="st5" d="M579.84,401.38c-5.39,0-9.76,4.75-9.76,10.6c0,4.33,2.49,8.3,6.21,9.88l0.02,0.01l0.18-0.49h0.01
				c0.36-1.01,1.33-3.64,3.88-10.6h-4.22l-2.16,5.9c-0.85-1.31-1.35-2.92-1.35-4.7c0-4.54,3.32-8.05,7.21-8.05s7.21,3.51,7.21,8.05
				c0,3.92-2.47,7.07-5.66,7.86l3.31-9.06h-2.88l-4.04,11.03c0,0,0,0,0.01,0l-0.18,0.49l0.05,0.01c0.71,0.17,1.44,0.26,2.18,0.26
				c5.38,0,9.76-4.75,9.76-10.6C589.6,406.14,585.22,401.38,579.84,401.38L579.84,401.38z M556.23,413.98l1.81-5.65l1.77,5.65
				H556.23L556.23,413.98z M556.21,404.63l-5.45,15.25h3.53l1.05-3.1h5.4l0.97,3.1h3.63l-5.38-15.25H556.21L556.21,404.63z
				 M546.02,414.91l-5.92-10.28h-3.41v15.25h3.13v-10.53l6.09,10.53h3.23v-15.25h-3.13L546.02,414.91L546.02,414.91z M530.51,414.62
				c0,1.89-0.93,2.77-2.93,2.77c-1.62,0-2.59-1.09-2.59-2.92v-9.84h-3.4v10.06c0.05,1.66,0.43,2.84,1.2,3.71
				c1.46,1.63,3.67,1.87,4.86,1.87c4.1,0,6.28-1.99,6.28-5.76v-9.87h-3.42V414.62L530.51,414.62z M512.76,417.08h-2.97v-9.67h2.94
				c1.45,0,3.37,0.49,3.37,4.71C516.1,413.29,515.87,417.08,512.76,417.08L512.76,417.08z M513.28,404.63h-6.75v15.25h6.62
				c4.69,0,6.35-4.12,6.35-7.98C519.5,410.19,519.05,404.63,513.28,404.63L513.28,404.63z M442.2,414.3h3.48
				c-0.69,2.93-3.06,3.09-3.53,3.09c-1.95,0-4.28-0.88-4.28-5.06c0-3.9,2.18-5.29,4.22-5.29c2.22,0,3.21,1.88,3.21,2.37v0.1h3.35
				l-0.01-0.11c-0.14-1.78-1.73-5.15-6.76-5.15c-5.47,0-7.41,4.33-7.41,8.04c0,5.5,3.52,7.97,7.01,7.97c2.6,0,3.81-1.24,4.62-2.17
				l0.29,1.79h2.29v-8.32h-6.5v2.74H442.2z M471.15,413.98l1.8-5.65l1.77,5.65H471.15L471.15,413.98z M471.12,404.63l-5.44,15.25
				h3.52l1.05-3.1h5.42l0.96,3.1h3.63l-5.37-15.25H471.12L471.12,404.63z M429.05,419.88h3.34v-15.25h-3.34V419.88L429.05,419.88z
				 M460.93,414.92l-5.93-10.3h-3.4v15.25h3.12v-10.55l6.09,10.55h3.24v-15.25h-3.12V414.92L460.93,414.92z M422.79,411.11
				l-3.66-0.9c-0.53-0.12-1.52-0.34-1.52-1.47c0-1.25,1.3-1.7,2.52-1.7c2.71,0,2.91,1.58,2.98,2.17l0.01,0.08h3.21v-0.1
				c-0.03-2.28-1.62-4.95-5.98-4.95c-5.46,0-5.88,3.61-5.88,4.72c0,3.37,2.46,3.95,4.85,4.51l1.62,0.37
				c1.64,0.39,2.64,0.69,2.64,1.77c0,1.22-1.02,1.85-3.04,1.85c-2.75,0-3.08-1.63-3.1-2.33v-0.09h-3.21v0.1
				c0,1.54,0.64,5.12,6.54,5.12c1,0,6.03-0.24,6.03-5.02C426.81,412.47,424.88,411.62,422.79,411.11L422.79,411.11z M500.16,419.88
				h3.34v-15.25h-3.34V419.88L500.16,419.88z M485.38,404.63h-3.35v15.25h10.84v-2.92h-7.49V404.63L485.38,404.63z M518.59,431.53
				l-1.78,5.65h3.52L518.59,431.53L518.59,431.53z M520.49,427.83l5.3,15.25h-3.58l-0.95-3.1h-5.34l-1.03,3.1h-3.47l5.36-15.25
				H520.49L520.49,427.83z M549.94,434.14l6.28-6.31h-4.34l-5.67,6.05v-6.05h-3.29v15.25h3.29v-5.09l1.39-1.43l4.58,6.48l0.03,0.04
				h4.29L549.94,434.14L549.94,434.14z M530.89,434.49h3.46c0.69,0,1.21-0.08,1.56-0.23c0.58-0.27,0.88-0.81,0.88-1.61
				c0-0.87-0.29-1.46-0.86-1.75c-0.32-0.17-0.82-0.25-1.49-0.25h-3.56L530.89,434.49L530.89,434.49z M539.8,441.73
				c0.08,0.36,0.25,0.63,0.53,0.8l0.05,0.03v0.53h-3.63l-0.02-0.07c-0.1-0.33-0.16-0.6-0.21-0.82c-0.08-0.42-0.13-0.86-0.13-1.31
				l-0.02-1.4c-0.01-0.93-0.18-1.55-0.5-1.85c-0.31-0.3-0.93-0.46-1.82-0.46h-3.15v5.91h-3.27v-15.25h7.48
				c1.06,0.02,1.89,0.15,2.47,0.4c0.58,0.24,1.08,0.61,1.49,1.08c0.33,0.38,0.6,0.82,0.8,1.29c0.19,0.47,0.29,1.01,0.29,1.62
				c0,0.73-0.18,1.45-0.55,2.16c-0.34,0.64-0.88,1.12-1.62,1.42c0.6,0.28,1.04,0.66,1.3,1.14c0.3,0.53,0.45,1.33,0.45,2.4v1.01
				C539.72,441.02,539.75,441.49,539.8,441.73 M503.43,434.87h2.83c0.71,0,1.27-0.17,1.67-0.51c0.39-0.34,0.59-0.89,0.59-1.65
				c0-0.75-0.2-1.29-0.58-1.6c-0.4-0.32-0.96-0.47-1.67-0.47h-2.83v4.23H503.43z M510.44,429.01c0.92,0.8,1.39,2.04,1.39,3.68
				c0,1.8-0.47,3.09-1.39,3.84c-0.91,0.75-2.23,1.13-3.91,1.13h-3.1v5.41h-3.33v-15.25h6.65
				C508.28,427.83,509.52,428.22,510.44,429.01"/>
		</g>
		<g>
			<defs>
				<rect id="SVGID_7_" x="414.24" y="401.38" width="175.36" height="44.32"/>
			</defs>
			<clipPath id="SVGID_8_">
				<use xlink:href="#SVGID_7_"  style="overflow:visible;"/>
			</clipPath>
			<path class="st6" d="M483.45,444.19c0.53-0.06,1.63-0.18,2.74-1.68c0.74-1,2.4-4.49,2.42-4.52l0.04-0.07
				c0.44-1.03,0.16-1.65-0.2-2.24l-2.2-3.04c-0.25-0.29-0.71-0.5-1.18-0.5c-0.77,0-1.31,0.51-1.37,1.29l-0.05,0.64l-0.61-0.18
				c-3.84-1.12-8.21-2.35-13.36-3.75l-0.19-0.05l-2.83-4.34c-0.43-0.64-0.93-0.74-1.2-0.74c-0.81,0-1.44,0.8-1.44,1.5v2.05l-0.6-0.1
				c-0.55-0.09-1.26-0.08-1.96,0.04l-0.6,0.1v-2.08c0-0.36-0.18-0.77-0.48-1.07c-0.28-0.28-0.62-0.43-0.97-0.43
				c-0.32,0-0.79,0.13-1.21,0.76l-3.46,5.31c-0.05,0.08-0.1,0.18-0.14,0.27l-0.08,0.17l-5.57,2.73l-0.77,0.43v-1.12
				c0-0.85-0.56-1.42-1.37-1.42c-0.46,0-0.93,0.2-1.18,0.5l-2.2,3.04c-0.35,0.57-0.65,1.19-0.2,2.24c0.14,0.27,1.83,3.56,2.48,4.63
				c0.78,1.29,2.32,1.59,2.77,1.65c0.04,0,0.34,0.03,0.8,0.08c1.54,0.16,5.15,0.54,6.86,0.75l1.2,0.15c2.93,0.36,4.78,0.55,5.8,0.52
				c3.14-0.11,11.41-0.48,20.26-1.5L483.45,444.19L483.45,444.19z"/>
		</g>
	</g>
	<path class="st0" d="M459.13,426.37c0.28-0.41,0.62-0.18,0.62,0.14v15.15c0,0.3-0.47,0.45-0.61,0.12l-3.45-8.97
		c-0.23-0.6-0.25-0.75,0-1.18L459.13,426.37L459.13,426.37z M455.24,432.99l3.45,8.98c0.4,0.93,1.53,0.37,1.53-0.31v-15.15
		c0-0.65-0.88-1.32-1.49-0.4l-3.45,5.28C454.93,432,454.99,432.32,455.24,432.99L455.24,432.99z M465.12,426.51
		c0-0.33,0.34-0.55,0.62-0.14l3.44,5.27c0.25,0.43,0.23,0.58,0,1.18l-3.45,8.97c-0.14,0.32-0.61,0.17-0.61-0.12V426.51
		L465.12,426.51z M464.64,441.66c0,0.67,1.12,1.23,1.52,0.31l3.45-8.98c0.25-0.66,0.31-0.99-0.04-1.6l-3.44-5.28
		c-0.62-0.92-1.49-0.25-1.49,0.4V441.66L464.64,441.66z M483.3,443.57c-7.85,0.9-15.5,1.33-20.21,1.49
		c-2.03,0.07-8.5-0.96-13.95-1.44c-0.22-0.02-0.46-0.03-0.57-0.05c-0.12-0.02-0.08-0.13-0.02-0.14h1.11h33.62
		C483.41,443.43,483.39,443.56,483.3,443.57L483.3,443.57z M449.4,437.72l6.53-2.3l0.17,0.44l-6.55,2.3c-0.08,0.03-0.2,0.06-0.3,0.1
		c-0.25,0.09-0.28,0.11-0.27,0.38c0,0.63,0,1.03,0,1.24c0,0.29,0.16,0.3,0.48,0.3c0,0,4.53-0.22,8.14-0.4l0.38,0.98
		c-4.42-0.05-8.52-0.1-8.52-0.1c-0.87,0-0.96-0.46-0.96-0.77c0-0.22,0-0.61,0-1.24C448.5,437.98,448.83,437.91,449.4,437.72
		L449.4,437.72z M468.72,440.89c-0.08,0-0.79-0.01-1.88-0.02l0.44-1.15c6.14,0.17,15.4,0.44,15.4,0.44c0.14,0,0.2-0.1,0.2-0.2v-1.65
		c0-0.05-0.01-0.1-0.03-0.14c-0.03-0.05-0.09-0.07-0.14-0.08c-0.03-0.01-8.07-1.55-13.79-2.65l0.18-0.45l13.71,2.63
		c0.44,0.1,0.55,0.44,0.55,0.69c0,0.18,0,1.52,0,1.65c0,0.26-0.19,0.68-0.67,0.68C482.69,440.63,469.64,440.89,468.72,440.89
		L468.72,440.89z M460.46,434.42v-0.49c1.05-0.19,2.23-0.21,2.98-0.04l0.96,0.18v0.49c-0.67-0.13-1.06-0.2-1.06-0.2
		C462.65,434.2,461.48,434.23,460.46,434.42L460.46,434.42z M464.4,440.84c-1.19-0.01-2.55-0.03-3.94-0.05v-1.15
		c0.87-0.04,1.46-0.07,1.55-0.07c0.18,0,1.07,0.02,2.39,0.06V440.84L464.4,440.84z M478.27,436.51l-9.09-1.75l0.65-1.69
		c0.27-0.7,0.35-1.11-0.06-1.81l-0.34-0.53c4,1.09,9.34,2.57,13.41,3.75l0.14,0.04c0.03,0.01,0.06,0.02,0.1,0.03
		c0.37,0.17,0.45,0.86-0.14,1.03L478.27,436.51L478.27,436.51z M455.84,435.2l-2.02,0.71l-1.43,0.5l-3.51-0.43
		c-0.32-0.03-0.66-0.59,0-0.98c0.21-0.12,0.43-0.24,0.64-0.35l5.29-2.58c-0.02,0.31,0.07,0.61,0.22,1L455.84,435.2L455.84,435.2z
		 M461.33,433.58c-0.29,0.03-0.58,0.06-0.87,0.11v-4.32c1.13-0.37,2.47-0.47,3.27-0.19c0,0,0.24,0.06,0.67,0.18v4.48l-0.91-0.17
		c-0.33-0.08-0.73-0.12-1.17-0.13c-0.16,0-0.32,0-0.48,0.01C461.67,433.56,461.5,433.57,461.33,433.58L461.33,433.58z
		 M447.07,441.97c0,0.22-0.26,0.31-0.38,0.08l-2.46-4.58c-0.25-0.58-0.16-0.75,0.12-1.21l2.12-2.93c0.17-0.21,0.59-0.15,0.59,0.23
		v8.41H447.07z M446.1,433.04l-2.14,2.96c-0.34,0.54-0.49,0.91-0.16,1.68l2.46,4.6c0.37,0.69,1.28,0.37,1.28-0.31v-8.4
		C447.55,432.61,446.48,432.59,446.1,433.04L446.1,433.04z M487.63,437.47l-2.46,4.58c-0.12,0.23-0.38,0.13-0.38-0.08v-8.4
		c0-0.39,0.42-0.44,0.6-0.23l2.12,2.93C487.79,436.72,487.88,436.89,487.63,437.47L487.63,437.47z M485.76,433.04
		c-0.37-0.45-1.45-0.43-1.45,0.52v8.4c0,0.68,0.91,1,1.28,0.31l2.47-4.6c0.33-0.77,0.18-1.14-0.16-1.68L485.76,433.04L485.76,433.04
		z"/>
</g>
<g id="Ebene_2_2_">
	<g id="Layer_1_1_">
		<path class="st1" d="M244.46,424.54h3.29v-16.13c-0.02-0.89-0.75-1.59-1.64-1.58c-0.89,0-1.61,0.72-1.63,1.61v16.1H244.46z
			 M257.33,437.64h-9.59v-8.77h-3.27v8.77h-9.6v-31.86c-0.01-1.72,1.38-3.13,3.11-3.15h16.23c1.73,0.01,3.13,1.41,3.13,3.15l0,0
			L257.33,437.64L257.33,437.64z"/>
		<path class="st1" d="M157.61,408.48c0.01-0.91-0.72-1.64-1.63-1.65c0,0,0,0-0.01,0h-1.63v17.71h1.63c0.9,0,1.64-0.73,1.64-1.64
			c0-0.01,0-0.01,0-0.02V408.48z M164.07,428.87h-9.72v8.77h-9.62v-35h19.39c1.72-0.01,3.11,1.38,3.12,3.09c0,0.02,0,0.04,0,0.07
			v19.91c0.01,1.74-1.4,3.16-3.15,3.17l0,0h-0.02V428.87z"/>
		<path class="st1" d="M264.63,429.61c-2.03-0.06-3.74,1.53-3.8,3.57c-0.06,2.03,1.53,3.74,3.57,3.8c2.03,0.06,3.74-1.53,3.8-3.57
			c0-0.04,0-0.08,0-0.11C268.22,431.3,266.63,429.66,264.63,429.61z M264.56,428.98c2.38-0.04,4.35,1.85,4.39,4.23
			s-1.85,4.35-4.23,4.39s-4.35-1.85-4.39-4.23c0-0.03,0-0.06,0-0.08C260.32,430.93,262.21,429.01,264.56,428.98z"/>
		<path class="st1" d="M181.74,433.45c-0.9-0.02-1.62-0.74-1.63-1.64v-29.18h-9.63v32.16c0,1.57,1.27,2.83,2.84,2.84h16.82
			c1.57-0.01,2.84-1.28,2.84-2.86l0,0v-32.15h-9.61v29.18C183.33,432.71,182.62,433.43,181.74,433.45z"/>
		<path class="st1" d="M213.91,402.64h-14.55c-1.73,0.01-3.13,1.41-3.13,3.15l0,0v31.86h9.62v-29.22c0.02-0.89,0.74-1.61,1.64-1.61
			c0.89-0.01,1.62,0.69,1.64,1.58v29.25h9.59V408.4c0.02-0.89,0.75-1.59,1.64-1.58c0.89,0,1.62,0.71,1.64,1.61v29.22h9.62v-31.86
			c0.01-1.73-1.39-3.14-3.13-3.15h-0.01L213.91,402.64L213.91,402.64z"/>
		<path class="st1" d="M264.03,433.01h0.16c0.67,0,1-0.24,1-0.71s-0.34-0.65-1-0.65H264V433L264.03,433.01L264.03,433.01z
			 M265.03,433.71l1.61,2.07h-1.16l-1.5-1.96v1.96h-0.94v-4.97h1c1.34,0,2.05,0.5,2.05,1.5c0.01,0.63-0.4,1.19-1,1.39h-0.08
			L265.03,433.71z"/>
		<path class="st1" d="M266.35,402.79c-0.29,0.05-0.57,1.11-1.12,1.66c-0.41,0.41-0.92,0.38-1.19,0.88c-0.1,0.18-0.07,0.5-0.18,0.8
			c-0.24,0.61-1.04,0.67-1.04,1.32s0.67,0.85,1.25,1.36c0.46,0.41,0.5,0.69,1.05,0.88c0.47,0.17,1.17-0.36,1.8-0.17
			c0.5,0.15,1,0.27,1.13,0.79c0.13,0.53,0,1.25-0.63,1.17c-0.73-0.2-1.49-0.27-2.25-0.21c-1.36,0.15-2.9,0.6-3.06,2.11
			c-0.08,0.84,0.96,1.84,1.97,1.64c0.7-0.14,0.37-0.96,0.75-1.36c0.5-0.5,3.32,1.79,5.95,1.79c1.04,0.06,2.05-0.36,2.75-1.14
			c0.07-0.06,0.17-0.21,0.29-0.21c0.13,0.03,0.26,0.08,0.37,0.16c2.12,1.7,3.71,5.11,11.5,5.15c1.26,0.06,2.45,0.58,3.35,1.46
			c0.91,0.84,1.44,2.15,1.96,3.46c0.78,2,2.17,3.92,4.28,6.07c0.12,0.11,1.86,1.47,2,1.57c0.09,0.15,0.12,0.33,0.11,0.5
			c-0.05,1.29-0.24,5.04,2.55,5.2c0.69,0.04,0.5-0.45,0.5-0.78c0-0.65-0.12-1.3,0.23-1.97c0.47-0.92-1-1.34-0.96-3.33
			c0.03-1.48-1.22-1.23-1.85-2.36c-0.37-0.65-0.69-1-0.66-1.8c0.14-4.5-0.96-7.46-1.5-8.18c-0.43-0.55-0.78-0.77-0.39-1
			c2.33-1.54,2.86-2.97,2.86-2.97c1.24-2.92,2.36-5.57,3.9-6.75c0.5-0.4,1.03-0.75,1.59-1.06c1.44-0.68,2.2-1.09,2.61-1.5
			c0.66-0.64,1.18-2,0.55-2.8c-0.79-1-2.15-0.21-2.75,0.15c-4.29,2.55-4.92,7.03-6.4,9.61c-1.18,2.06-3.11,3.57-4.83,3.69
			c-1.4,0.07-2.79-0.19-4.06-0.78c-2.08-0.92-3.99-2.18-5.65-3.72c-0.91-0.7-7.93-7.59-13.63-7.88c0,0-0.7-1.42-0.88-1.44
			c-0.42-0.05-0.84,0.85-1.15,0.95C267.14,403.85,266.64,402.75,266.35,402.79z"/>
	</g>
</g>
<rect x="-444.65" y="374.53" class="st7" width="231.24" height="100.41"/>
<rect x="-168.81" y="374.53" class="st7" width="231.24" height="100.41"/>
<rect x="107.42" y="374.53" class="st7" width="231.24" height="100.41"/>
<rect x="-213.42" y="373.13" class="st8" width="45" height="101.81"/>
<rect x="62.42" y="373.13" class="st8" width="45" height="101.81"/>
<rect x="383.66" y="374.53" class="st7" width="231.24" height="100.41"/>
<rect x="338.66" y="373.13" class="st8" width="45" height="101.81"/>
<g id="Ebene_2_1_">
	<g id="Layer_1_2_">
		<path class="st1" d="M136.42,49.61h3.29V33.48c-0.02-0.89-0.75-1.59-1.64-1.58c-0.89,0-1.61,0.72-1.63,1.61v16.1H136.42z
			 M149.29,62.71h-9.59v-8.77h-3.27v8.77h-9.6V30.85c-0.01-1.72,1.38-3.13,3.11-3.15h16.23c1.73,0.01,3.13,1.41,3.13,3.15l0,0
			L149.29,62.71L149.29,62.71z"/>
		<path class="st1" d="M49.57,33.55c0.01-0.91-0.72-1.64-1.63-1.65c0,0,0,0-0.01,0H46.3v17.71h1.63c0.9,0,1.64-0.73,1.64-1.64
			c0-0.01,0-0.01,0-0.02V33.55z M56.03,53.94h-9.72v8.77h-9.62v-35h19.39c1.72-0.01,3.11,1.38,3.12,3.09c0,0.02,0,0.04,0,0.07v19.91
			c0.01,1.74-1.4,3.16-3.15,3.17l0,0h-0.02V53.94z"/>
		<path class="st1" d="M156.59,54.68c-2.03-0.06-3.74,1.53-3.8,3.57c-0.06,2.03,1.53,3.74,3.57,3.8c2.03,0.06,3.74-1.53,3.8-3.57
			c0-0.04,0-0.08,0-0.11C160.18,56.37,158.59,54.73,156.59,54.68z M156.52,54.05c2.38-0.04,4.35,1.85,4.39,4.23
			s-1.85,4.35-4.23,4.39s-4.35-1.85-4.39-4.23c0-0.03,0-0.06,0-0.08C152.28,56,154.17,54.08,156.52,54.05z"/>
		<path class="st1" d="M73.7,58.52c-0.9-0.02-1.62-0.74-1.63-1.64V27.7h-9.63v32.16c0,1.57,1.27,2.83,2.84,2.84H82.1
			c1.57-0.01,2.84-1.28,2.84-2.86l0,0V27.69h-9.61v29.18C75.29,57.78,74.58,58.5,73.7,58.52z"/>
		<path class="st1" d="M105.87,27.71H91.32c-1.73,0.01-3.13,1.41-3.13,3.15l0,0v31.86h9.62V33.5c0.02-0.89,0.74-1.61,1.64-1.61
			c0.89-0.01,1.62,0.69,1.64,1.58v29.25h9.59V33.47c0.02-0.89,0.75-1.59,1.64-1.58c0.89,0,1.62,0.71,1.64,1.61v29.22h9.62V30.86
			c0.01-1.73-1.39-3.14-3.13-3.15h-0.01L105.87,27.71L105.87,27.71z"/>
		<path class="st1" d="M155.99,58.08h0.16c0.67,0,1-0.24,1-0.71s-0.34-0.65-1-0.65h-0.19v1.35L155.99,58.08L155.99,58.08z
			 M156.99,58.78l1.61,2.07h-1.16l-1.5-1.96v1.96H155v-4.97h1c1.34,0,2.05,0.5,2.05,1.5c0.01,0.63-0.4,1.19-1,1.39h-0.08
			L156.99,58.78z"/>
		<path class="st1" d="M158.31,27.86c-0.29,0.05-0.57,1.11-1.12,1.66c-0.41,0.41-0.92,0.38-1.19,0.88c-0.1,0.18-0.07,0.5-0.18,0.8
			c-0.24,0.61-1.04,0.67-1.04,1.32c0,0.65,0.67,0.85,1.25,1.36c0.46,0.41,0.5,0.69,1.05,0.88c0.47,0.17,1.17-0.36,1.8-0.17
			c0.5,0.15,1,0.27,1.13,0.79c0.13,0.53,0,1.25-0.63,1.17c-0.73-0.2-1.49-0.27-2.25-0.21c-1.36,0.15-2.9,0.6-3.06,2.11
			c-0.08,0.84,0.96,1.84,1.97,1.64c0.7-0.14,0.37-0.96,0.75-1.36c0.5-0.5,3.32,1.79,5.95,1.79c1.04,0.06,2.05-0.36,2.75-1.14
			c0.07-0.06,0.17-0.21,0.29-0.21c0.13,0.03,0.26,0.08,0.37,0.16c2.12,1.7,3.71,5.11,11.5,5.15c1.26,0.06,2.45,0.58,3.35,1.46
			c0.91,0.84,1.44,2.15,1.96,3.46c0.78,2,2.17,3.92,4.28,6.07c0.12,0.11,1.86,1.47,2,1.57c0.09,0.15,0.12,0.33,0.11,0.5
			c-0.05,1.29-0.24,5.04,2.55,5.2c0.69,0.04,0.5-0.45,0.5-0.78c0-0.65-0.12-1.3,0.23-1.97c0.47-0.92-1-1.34-0.96-3.33
			c0.03-1.48-1.22-1.23-1.85-2.36c-0.37-0.65-0.69-1-0.66-1.8c0.14-4.5-0.96-7.46-1.5-8.18c-0.43-0.55-0.78-0.77-0.39-1
			c2.33-1.54,2.86-2.97,2.86-2.97c1.24-2.92,2.36-5.57,3.9-6.75c0.5-0.4,1.03-0.75,1.59-1.06c1.44-0.68,2.2-1.09,2.61-1.5
			c0.66-0.64,1.18-2,0.55-2.8c-0.79-1-2.15-0.21-2.75,0.15c-4.29,2.55-4.92,7.03-6.4,9.61c-1.18,2.06-3.11,3.57-4.83,3.69
			c-1.4,0.07-2.79-0.19-4.06-0.78c-2.08-0.92-3.99-2.18-5.65-3.72c-0.91-0.7-7.93-7.59-13.63-7.88c0,0-0.7-1.42-0.88-1.44
			c-0.42-0.05-0.84,0.85-1.15,0.95C159.1,28.92,158.6,27.82,158.31,27.86z"/>
	</g>
</g>
</svg>
