<?xml version="1.0" encoding="utf-8"?>
<!-- Generator: Adobe Illustrator 24.2.0, SVG Export Plug-In . SVG Version: 6.00 Build 0)  -->
<svg version="1.1" id="Ebene_1" xmlns="http://www.w3.org/2000/svg" xmlns:xlink="http://www.w3.org/1999/xlink" x="0px" y="0px"
	 viewBox="0 0 692.35 300" style="enable-background:new 0 0 692.35 300;" xml:space="preserve">
<style type="text/css">
	.st0{fill:#FFFFFF;}
	.st1{fill:#164194;}
	.st2{fill-rule:evenodd;clip-rule:evenodd;fill:#FFFFFF;}
</style>
<g>
	<path class="st0" d="M59.6,40.13c0,1.1-0.05,2.2-0.14,3.31c-0.1,1.1-0.27,2.18-0.51,3.22c-0.25,1.05-0.59,2.02-1.03,2.94
		c-0.44,0.91-1.02,1.73-1.74,2.45c-0.76,0.76-1.73,1.36-2.91,1.8c-1.18,0.44-2.49,0.66-3.93,0.66c-1.56,0-2.98-0.25-4.28-0.74
		c-1.29-0.49-2.51-1.46-3.65-2.91v15.85h-4.1V26.1h4.1v3.31c1.14-1.48,2.36-2.46,3.65-2.94c1.29-0.48,2.72-0.71,4.28-0.71
		c1.44,0,2.75,0.22,3.93,0.66c1.18,0.44,2.15,1.04,2.91,1.8c0.72,0.72,1.3,1.54,1.74,2.45c0.44,0.91,0.78,1.89,1.03,2.94
		c0.25,1.05,0.42,2.12,0.51,3.22C59.56,37.92,59.6,39.02,59.6,40.13z M55.5,40.13c0-1.37-0.08-2.7-0.23-3.99
		c-0.15-1.29-0.48-2.43-0.97-3.42c-0.49-0.99-1.21-1.79-2.14-2.39c-0.93-0.61-2.16-0.91-3.68-0.91c-1.52,0-2.75,0.3-3.68,0.91
		c-0.93,0.61-1.64,1.41-2.14,2.39c-0.49,0.99-0.83,2.13-1,3.42c-0.17,1.29-0.26,2.62-0.26,3.99s0.09,2.7,0.26,3.99
		c0.17,1.29,0.5,2.43,1,3.42c0.49,0.99,1.21,1.79,2.14,2.39c0.93,0.61,2.16,0.91,3.68,0.91c1.52,0,2.75-0.3,3.68-0.91
		c0.93-0.61,1.64-1.41,2.14-2.39c0.49-0.99,0.82-2.13,0.97-3.42C55.42,42.82,55.5,41.49,55.5,40.13z"/>
	<path class="st0" d="M84.06,31.46c-0.76-0.76-1.48-1.29-2.17-1.6c-0.68-0.3-1.58-0.46-2.68-0.46c-1.03,0-1.96,0.19-2.79,0.57
		c-0.84,0.38-1.54,0.91-2.11,1.6c-0.57,0.68-1.02,1.48-1.34,2.39c-0.32,0.91-0.48,1.9-0.48,2.96v17.21h-4.1V26.1h4.1v3.42
		c0.76-1.18,1.85-2.1,3.28-2.76c1.42-0.66,2.95-1,4.59-1c1.33,0,2.54,0.19,3.62,0.57c1.08,0.38,2.12,1.06,3.11,2.05L84.06,31.46z"/>
	<path class="st0" d="M108.28,54.15v-2.68c-1.14,1.14-2.31,1.93-3.51,2.37c-1.2,0.44-2.73,0.66-4.59,0.66c-1.94,0-3.52-0.2-4.76-0.6
		c-1.24-0.4-2.29-1.05-3.16-1.97c-0.68-0.68-1.21-1.53-1.57-2.54c-0.36-1.01-0.54-2.06-0.54-3.16c0-2.47,0.83-4.44,2.48-5.9
		c1.65-1.46,4.06-2.19,7.21-2.19h8.44v-2.68c0-2.05-0.55-3.59-1.65-4.62c-1.1-1.03-2.95-1.54-5.53-1.54c-1.82,0-3.25,0.24-4.27,0.71
		c-1.03,0.48-1.96,1.3-2.79,2.48l-2.79-2.56c1.25-1.63,2.65-2.74,4.19-3.31c1.54-0.57,3.45-0.86,5.73-0.86
		c3.8,0,6.62,0.79,8.46,2.37c1.84,1.58,2.76,3.9,2.76,6.98v19.04H108.28z M93.58,19.83v-5.07h4.1v5.07H93.58z M108.28,41.21h-7.87
		c-4.18,0-6.27,1.65-6.27,4.96c0,1.63,0.51,2.84,1.54,3.62c1.03,0.78,2.66,1.17,4.9,1.17c1.22,0,2.35-0.09,3.39-0.29
		c1.04-0.19,2-0.72,2.88-1.6c0.95-0.91,1.43-2.53,1.43-4.84V41.21z M105.6,19.83v-5.07h4.1v5.07H105.6z"/>
	<path class="st0" d="M142.6,45.94c0,1.37-0.28,2.57-0.83,3.62c-0.55,1.05-1.33,1.94-2.34,2.68c-1.01,0.74-2.2,1.3-3.59,1.68
		c-1.39,0.38-2.94,0.57-4.65,0.57c-2.39,0-4.52-0.3-6.38-0.91c-1.86-0.61-3.57-1.65-5.13-3.14l2.74-2.74
		c1.1,1.18,2.39,2.01,3.88,2.51c1.48,0.49,3.1,0.74,4.85,0.74c2.32,0,4.14-0.41,5.47-1.23c1.33-0.82,2-2.06,2-3.73
		c0-1.22-0.37-2.17-1.11-2.85c-0.74-0.68-1.93-1.1-3.56-1.25l-4.62-0.4c-2.74-0.23-4.82-0.96-6.24-2.19
		c-1.42-1.23-2.14-3.01-2.14-5.33c0-1.29,0.26-2.44,0.77-3.45c0.51-1.01,1.23-1.86,2.14-2.56c0.91-0.7,2-1.24,3.28-1.62
		c1.27-0.38,2.65-0.57,4.13-0.57c2.01,0,3.88,0.25,5.61,0.74c1.73,0.49,3.22,1.25,4.47,2.28l-2.68,2.68
		c-0.99-0.76-2.12-1.32-3.39-1.68c-1.27-0.36-2.63-0.54-4.08-0.54c-2.05,0-3.61,0.41-4.67,1.23c-1.06,0.82-1.6,1.95-1.6,3.39
		c0,1.22,0.37,2.17,1.11,2.85c0.74,0.68,2,1.1,3.79,1.25l4.5,0.4c1.22,0.11,2.34,0.32,3.36,0.63c1.03,0.3,1.9,0.76,2.62,1.37
		c0.72,0.61,1.28,1.37,1.68,2.28C142.4,43.55,142.6,44.65,142.6,45.94z"/>
	<path class="st0" d="M153.2,41.21c0,3.08,0.7,5.46,2.11,7.15c1.41,1.69,3.46,2.54,6.16,2.54c1.63,0,2.99-0.26,4.08-0.77
		s2.17-1.32,3.28-2.42l2.79,2.45c-0.72,0.72-1.43,1.35-2.14,1.88c-0.7,0.53-1.45,0.98-2.25,1.34c-0.8,0.36-1.68,0.64-2.65,0.83
		c-0.97,0.19-2.04,0.28-3.22,0.28c-1.86,0-3.54-0.28-5.04-0.85c-1.5-0.57-2.78-1.44-3.85-2.62c-1.06-1.18-1.89-2.67-2.48-4.47
		c-0.59-1.8-0.88-3.94-0.88-6.41c0-4.56,1.03-8.09,3.08-10.6c2.05-2.51,4.86-3.76,8.44-3.76c3.65,0,6.48,1.22,8.49,3.65
		c2.01,2.43,3.02,5.74,3.02,9.92v1.88H153.2z M168.02,38.13c-0.04-0.57-0.08-1.06-0.11-1.48c-0.04-0.42-0.09-0.8-0.14-1.14
		c-0.06-0.34-0.13-0.67-0.23-1c-0.1-0.32-0.22-0.67-0.37-1.05c-0.53-1.29-1.39-2.32-2.56-3.08c-1.18-0.76-2.51-1.14-3.99-1.14
		s-2.81,0.38-3.99,1.14c-1.18,0.76-2.03,1.79-2.57,3.08c-0.3,0.76-0.51,1.44-0.63,2.05c-0.11,0.61-0.19,1.48-0.23,2.62H168.02z"/>
	<path class="st0" d="M198.8,54.15V36.88c0-2.51-0.62-4.38-1.85-5.61c-1.24-1.23-2.92-1.85-5.04-1.85c-2.13,0-3.82,0.63-5.07,1.88
		c-1.25,1.25-1.88,3.12-1.88,5.59v17.27h-4.1V26.1h4.1v3.08c0.99-1.14,2.15-2,3.48-2.56c1.33-0.57,2.79-0.86,4.39-0.86
		c3.04,0,5.43,0.88,7.18,2.62c1.94,1.9,2.91,4.5,2.91,7.81v17.96H198.8z"/>
	<path class="st0" d="M220.74,54.15c-1.22,0-2.27-0.2-3.16-0.6c-0.89-0.4-1.63-0.94-2.22-1.62c-0.59-0.68-1.04-1.48-1.34-2.39
		c-0.3-0.91-0.46-1.88-0.46-2.91V29.41h-3.53v-3.14h3.53V17.5h4.1v8.78h5.98v3.14h-5.98v17.1c0,1.29,0.3,2.3,0.91,3.02
		c0.61,0.72,1.58,1.08,2.91,1.08h2.17v3.53H220.74z"/>
	<path class="st0" d="M231.57,18.12v-4.62h4.62v4.62H231.57z M231.8,54.15V26.1h4.1v28.04H231.8z"/>
	<path class="st0" d="M248.78,41.21c0,3.08,0.7,5.46,2.11,7.15c1.41,1.69,3.46,2.54,6.16,2.54c1.63,0,2.99-0.26,4.08-0.77
		s2.17-1.32,3.28-2.42l2.79,2.45c-0.72,0.72-1.43,1.35-2.14,1.88c-0.7,0.53-1.45,0.98-2.25,1.34c-0.8,0.36-1.68,0.64-2.65,0.83
		c-0.97,0.19-2.04,0.28-3.22,0.28c-1.86,0-3.54-0.28-5.04-0.85c-1.5-0.57-2.78-1.44-3.85-2.62c-1.06-1.18-1.89-2.67-2.48-4.47
		c-0.59-1.8-0.88-3.94-0.88-6.41c0-4.56,1.03-8.09,3.08-10.6c2.05-2.51,4.86-3.76,8.44-3.76c3.65,0,6.48,1.22,8.49,3.65
		c2.01,2.43,3.02,5.74,3.02,9.92v1.88H248.78z M263.6,38.13c-0.04-0.57-0.08-1.06-0.11-1.48c-0.04-0.42-0.09-0.8-0.14-1.14
		c-0.06-0.34-0.13-0.67-0.23-1c-0.1-0.32-0.22-0.67-0.37-1.05c-0.53-1.29-1.39-2.32-2.56-3.08c-1.18-0.76-2.51-1.14-3.99-1.14
		c-1.48,0-2.81,0.38-3.99,1.14c-1.18,0.76-2.03,1.79-2.57,3.08c-0.3,0.76-0.51,1.44-0.63,2.05c-0.11,0.61-0.19,1.48-0.23,2.62H263.6
		z"/>
	<path class="st0" d="M292.1,31.46c-0.76-0.76-1.48-1.29-2.17-1.6c-0.68-0.3-1.58-0.46-2.68-0.46c-1.03,0-1.96,0.19-2.79,0.57
		c-0.84,0.38-1.54,0.91-2.11,1.6c-0.57,0.68-1.02,1.48-1.34,2.39c-0.32,0.91-0.48,1.9-0.48,2.96v17.21h-4.1V26.1h4.1v3.42
		c0.76-1.18,1.85-2.1,3.28-2.76c1.43-0.66,2.96-1,4.59-1c1.33,0,2.54,0.19,3.62,0.57c1.08,0.38,2.12,1.06,3.11,2.05L292.1,31.46z"/>
	<path class="st0" d="M308.29,54.15c-1.22,0-2.27-0.2-3.16-0.6s-1.63-0.94-2.22-1.62c-0.59-0.68-1.04-1.48-1.34-2.39
		c-0.3-0.91-0.46-1.88-0.46-2.91V29.41h-3.53v-3.14h3.53V17.5h4.1v8.78h5.99v3.14h-5.99v17.1c0,1.29,0.3,2.3,0.91,3.02
		c0.61,0.72,1.58,1.08,2.91,1.08h2.17v3.53H308.29z"/>
	<path class="st0" d="M241.6,96.15h-3.65L227.69,68.1h4.45l7.64,22.52l7.69-22.52h4.45L241.6,96.15z"/>
	<path class="st0" d="M278.54,82.13c0,2.17-0.22,4.21-0.66,6.13c-0.44,1.92-1.36,3.6-2.76,5.04c-0.99,0.99-2.15,1.77-3.48,2.34
		c-1.33,0.57-2.85,0.85-4.56,0.85s-3.23-0.28-4.56-0.85c-1.33-0.57-2.49-1.35-3.48-2.34c-0.72-0.72-1.3-1.51-1.74-2.37
		c-0.44-0.85-0.78-1.75-1.03-2.68c-0.25-0.93-0.42-1.91-0.51-2.94c-0.1-1.03-0.14-2.09-0.14-3.19c0-1.06,0.05-2.12,0.14-3.16
		c0.09-1.04,0.27-2.03,0.51-2.96c0.25-0.93,0.59-1.82,1.03-2.68c0.44-0.85,1.02-1.64,1.74-2.37c0.99-0.99,2.15-1.77,3.48-2.34
		c1.33-0.57,2.85-0.86,4.56-0.86s3.23,0.29,4.56,0.86c1.33,0.57,2.49,1.35,3.48,2.34c1.41,1.44,2.33,3.13,2.76,5.04
		C278.32,77.92,278.54,79.96,278.54,82.13z M274.43,82.13c0-0.8-0.02-1.6-0.06-2.39c-0.04-0.8-0.13-1.58-0.29-2.34
		c-0.15-0.76-0.38-1.47-0.69-2.14c-0.3-0.66-0.7-1.26-1.2-1.8c-1.37-1.37-3.08-2.05-5.13-2.05c-2.01,0-3.71,0.68-5.07,2.05
		c-0.53,0.53-0.94,1.13-1.23,1.8c-0.29,0.67-0.51,1.38-0.68,2.14c-0.17,0.76-0.28,1.54-0.31,2.34c-0.04,0.8-0.06,1.6-0.06,2.39
		s0.02,1.6,0.06,2.39c0.04,0.8,0.14,1.58,0.31,2.34c0.17,0.76,0.4,1.48,0.68,2.17c0.28,0.68,0.69,1.27,1.23,1.77
		c1.37,1.37,3.06,2.05,5.07,2.05c2.05,0,3.76-0.68,5.13-2.05c0.49-0.49,0.89-1.08,1.2-1.77s0.53-1.41,0.69-2.17
		c0.15-0.76,0.25-1.54,0.29-2.34C274.41,83.72,274.43,82.92,274.43,82.13z"/>
	<path class="st0" d="M305.27,96.15V78.88c0-2.51-0.62-4.38-1.85-5.61c-1.24-1.23-2.92-1.85-5.04-1.85c-2.13,0-3.82,0.63-5.07,1.88
		s-1.88,3.12-1.88,5.59v17.27h-4.1V68.1h4.1v3.08c0.99-1.14,2.15-2,3.48-2.56c1.33-0.57,2.79-0.86,4.39-0.86
		c3.04,0,5.43,0.88,7.18,2.62c1.94,1.9,2.91,4.5,2.91,7.81v17.96H305.27z"/>
</g>
<g>
	<polygon class="st0" points="396.39,8.84 677.7,8.84 677.7,290.15 396.39,290.15 396.39,8.84 396.39,8.84 	"/>
	<polygon class="st1" points="401.11,13.56 673.18,13.56 673.18,285.63 401.11,285.63 401.11,13.56 401.11,13.56 	"/>
	<path class="st2" d="M552.23,184.45c-4.59,3.82-9.93,6.73-17.89,6.73c-12.95,0-21.76-6.73-22.08-17.26
		c-0.21-6.9,4.34-14.23,15.71-21.75L552.23,184.45L552.23,184.45L552.23,184.45z M532.23,124.92c-7.37-9.47-8.96-12.38-8.96-17.71
		c0-5.52,4.38-9.59,10.56-9.59c6.38,0,10.39,3.67,10.39,9.39C544.22,112.73,540.98,118.61,532.23,124.92L532.23,124.92
		L532.23,124.92z M569.21,143.1c0.2,3.16,0.41,6.04,0.45,7.03c0.33,8.28-1.26,18.48-3.11,20.15l-22.13-30.02
		c14.94-12.43,19.8-21.22,19.8-33.05c0-16.18-12.55-27.98-30.28-27.98c-19.12,0-32.62,11.6-32.62,27.39
		c0,9.27,2.37,14.39,13.93,29.18c-17.95,10.37-27.31,24.77-26.31,38.78c1.68,23.42,19.51,36.57,45.4,36.71
		c13.23,0.08,21.42-2.71,30.75-10.18l5.71,7.69h25.3l-16.36-21.7c7.77-9.86,10.3-20.08,10.3-36.25c0-0.99-0.27-4.97-0.27-7.73
		H569.21L569.21,143.1L569.21,143.1z"/>
	<polygon class="st0" points="473.18,208.8 473.18,80.74 427.11,80.74 427.11,101.26 447.59,101.26 447.59,208.81 473.18,208.8 
		473.18,208.8 	"/>
	<polygon class="st0" points="636.99,208.8 636.99,80.74 590.92,80.74 590.92,101.26 611.41,101.26 611.41,208.81 636.99,208.8 
		636.99,208.8 	"/>
</g>
</svg>
